<?xml version="1.0" encoding="UTF-8" standalone="no"?>
<!DOCTYPE svg PUBLIC "-//W3C//DTD SVG 1.1//EN" "http://www.w3.org/Graphics/SVG/1.1/DTD/svg11.dtd">
<svg width="100%" height="100%" viewBox="0 0 271 331" version="1.1" xmlns="http://www.w3.org/2000/svg" xmlns:xlink="http://www.w3.org/1999/xlink" xml:space="preserve" xmlns:serif="http://www.serif.com/" style="fill-rule:evenodd;clip-rule:evenodd;stroke-linejoin:round;stroke-miterlimit:2;">
    <g transform="matrix(1,0,0,1,-565.157,-1588.44)">
        <g transform="matrix(-1,-1.22465e-16,2.7319e-16,-2.23077,1734.16,5551.13)">
            <path d="M1033.5,1628L1169,1706L898,1706L1033.5,1628Z" style="fill:rgb(65,181,255);"/>
        </g>
        <g transform="matrix(1,0,0,1,-271,-135.563)">
            <path d="M923.157,1881L1107.16,2055L1020.16,1881L923.157,1881Z" style="fill:rgb(229,64,101);fill-opacity:0.38;"/>
        </g>
        <g transform="matrix(1,0,0,1,-487.435,91.437)">
            <rect x="1052.59" y="1622" width="271" height="32" style="fill:rgb(255,188,65);"/>
        </g>
        <g transform="matrix(1,0,0,3.90625,-487.435,-4747.5)">
            <rect x="1052.59" y="1622" width="271" height="32" style="fill:url(#_Linear1);"/>
        </g>
        <g transform="matrix(1,0,0,1,-271,-135.563)">
            <path d="M836.157,2055L923.157,1881L1020.16,1881L836.157,2055Z" style="fill:rgb(213,0,48);"/>
        </g>
        <g transform="matrix(1,0,0,0.605096,-284,594.615)">
            <path d="M952,1849L952,1770.5C952,1770.5 959.933,1818.93 968.9,1827.9C977.869,1836.87 1005.81,1848.81 1005.81,1848.81L952,1849Z" style="fill:rgb(167,0,0);"/>
        </g>
        <g transform="matrix(1,0,0,0.466348,-267,851.16)">
            <path d="M952,1849L952,1770.5C952,1770.5 959.933,1818.93 968.9,1827.9C977.869,1836.87 1005.81,1848.81 1005.81,1848.81L952,1849Z" style="fill:rgb(196,0,0);"/>
        </g>
        <g transform="matrix(1,0,0,0.302548,-250,1154.03)">
            <path d="M952,1849L952,1770.5C952,1770.5 959.933,1818.93 968.9,1827.9C977.869,1836.87 1005.81,1848.81 1005.81,1848.81L952,1849Z" style="fill:rgb(255,0,0);"/>
        </g>
    </g>
    <defs>
        <linearGradient id="_Linear1" x1="0" y1="0" x2="1" y2="0" gradientUnits="userSpaceOnUse" gradientTransform="matrix(9.61348e-15,32,-157,1.95943e-15,1188.09,1622)"><stop offset="0" style="stop-color:white;stop-opacity:0"/><stop offset="1" style="stop-color:rgb(0,183,30);stop-opacity:1"/></linearGradient>
    </defs>
</svg>
